<svg width="191" height="80" viewBox="0 0 191 80" fill="none" xmlns="http://www.w3.org/2000/svg">
<path fill-rule="evenodd" clip-rule="evenodd" d="M190.038 0H0.409424V80H190.038V0ZM166.082 25.0415L157.853 13.7153L95.8673 58.7507L89.3875 71.8234C89.1154 72.3723 89.5927 72.9943 90.1933 72.8735L104.096 70.0769L166.082 25.0415ZM169.66 22.4418L173.872 19.3823C174.86 18.6644 175.079 17.2814 174.361 16.2933L168.731 8.5453C168.014 7.5572 166.631 7.33816 165.643 8.05605L161.431 11.1155L169.66 22.4418ZM30.9127 24.7651C29.2559 24.7651 27.9127 26.1082 27.9127 27.7651C27.9127 29.422 29.2559 30.7651 30.9127 30.7651H96.3938C98.0507 30.7651 99.3938 29.422 99.3938 27.7651C99.3938 26.1082 98.0507 24.7651 96.3938 24.7651H30.9127ZM22.0668 36.9231C20.4099 36.9231 19.0668 38.2662 19.0668 39.9231C19.0668 41.5799 20.4099 42.9231 22.0668 42.9231H87.5479C89.2047 42.9231 90.5479 41.5799 90.5479 39.9231C90.5479 38.2662 89.2048 36.9231 87.5479 36.9231H22.0668ZM19.0668 52.0809C19.0668 50.424 20.4099 49.0809 22.0668 49.0809H87.5479C89.2048 49.0809 90.5479 50.424 90.5479 52.0809C90.5479 53.7378 89.2047 55.0809 87.5479 55.0809H22.0668C20.4099 55.0809 19.0668 53.7378 19.0668 52.0809ZM22.0668 61.2389C20.4099 61.2389 19.0668 62.582 19.0668 64.2389C19.0668 65.8957 20.4099 67.2389 22.0668 67.2389H57.0985C58.7553 67.2389 60.0985 65.8957 60.0985 64.2389C60.0985 62.582 58.7553 61.2389 57.0985 61.2389H22.0668Z" fill="white"/>
</svg>
