<svg width="191" height="101" viewBox="0 0 191 101" fill="none" xmlns="http://www.w3.org/2000/svg">
<path fill-rule="evenodd" clip-rule="evenodd" d="M12.4094 0.626495C5.78201 0.626495 0.409424 5.99908 0.409424 12.6265V88.6265C0.409424 95.2539 5.78199 100.626 12.4094 100.626H190.038V0.626495H12.4094ZM166.082 34.9699L157.853 23.6437L95.8673 68.6791L89.3875 81.7518C89.1154 82.3007 89.5927 82.9227 90.1933 82.8019L104.096 80.0053L166.082 34.9699ZM169.66 32.3702L173.872 29.3107C174.86 28.5928 175.079 27.2098 174.361 26.2217L168.731 18.4737C168.014 17.4856 166.631 17.2666 165.643 17.9845L161.431 21.044L169.66 32.3702ZM30.9127 34.6935C29.2559 34.6935 27.9127 36.0367 27.9127 37.6935C27.9127 39.3504 29.2559 40.6935 30.9127 40.6935H96.3938C98.0507 40.6935 99.3938 39.3504 99.3938 37.6935C99.3938 36.0367 98.0507 34.6935 96.3938 34.6935H30.9127ZM22.0668 46.8515C20.4099 46.8515 19.0668 48.1946 19.0668 49.8515C19.0668 51.5083 20.4099 52.8515 22.0668 52.8515H87.5479C89.2047 52.8515 90.5479 51.5083 90.5479 49.8515C90.5479 48.1946 89.2048 46.8515 87.5479 46.8515H22.0668ZM19.0668 62.0093C19.0668 60.3525 20.4099 59.0093 22.0668 59.0093H87.5479C89.2048 59.0093 90.5479 60.3525 90.5479 62.0093C90.5479 63.6662 89.2047 65.0093 87.5479 65.0093H22.0668C20.4099 65.0093 19.0668 63.6662 19.0668 62.0093ZM22.0668 71.1673C20.4099 71.1673 19.0668 72.5104 19.0668 74.1673C19.0668 75.8241 20.4099 77.1673 22.0668 77.1673H57.0985C58.7553 77.1673 60.0985 75.8241 60.0985 74.1673C60.0985 72.5104 58.7553 71.1673 57.0985 71.1673H22.0668Z" fill="white"/>
</svg>
