<svg width="401" height="401" viewBox="0 0 401 401" fill="none" xmlns="http://www.w3.org/2000/svg">
<path fill-rule="evenodd" clip-rule="evenodd" d="M200.875 0.300537C90.4185 0.300537 0.875488 89.8436 0.875488 200.301C0.875488 310.757 90.4185 400.301 200.875 400.301C311.332 400.301 400.875 310.757 400.875 200.301C400.875 89.8436 311.332 0.300537 200.875 0.300537ZM291.2 117.642V67.8314C281.011 66.322 266.672 65.5673 248.182 65.5673C226.421 65.5673 209 72.0137 195.918 84.9066C182.836 97.7995 176.296 115.944 176.296 139.34V180.471H128.183V236.32H176.296V379.525H234.031V236.32H281.955L289.313 180.471H234.031V144.812C234.031 135.755 235.918 128.963 239.691 124.434C243.465 119.906 250.76 117.642 261.578 117.642H291.2Z" fill="white"/>
</svg>
