<svg width="201" height="201" viewBox="0 0 201 201" fill="none" xmlns="http://www.w3.org/2000/svg">
<path fill-rule="evenodd" clip-rule="evenodd" d="M100.267 0.307373C45.0386 0.307373 0.26709 45.0789 0.26709 100.307C0.26709 155.536 45.0386 200.307 100.267 200.307C155.496 200.307 200.267 155.536 200.267 100.307C200.267 45.0789 155.496 0.307373 100.267 0.307373ZM120.267 183.315V143.315H80.2671V183.315H120.267ZM120.267 123.315C120.267 123.315 160.267 116.115 160.267 73.3152C160.267 43.3152 130.267 23.3152 100.267 23.3152C70.2671 23.3152 40.2671 53.3152 40.2671 83.3152H80.2671V73.3152C80.2671 67.7152 84.6671 63.3152 90.2671 63.3152H110.267C115.867 63.3152 120.267 67.7152 120.267 73.3152V93.3152C120.267 98.9152 115.867 103.315 110.267 103.315H100.267C89.2671 103.315 80.2671 112.315 80.2671 123.315H120.267Z" fill="white"/>
</svg>
