<svg width="401" height="401" viewBox="0 0 401 401" fill="none" xmlns="http://www.w3.org/2000/svg">
<path fill-rule="evenodd" clip-rule="evenodd" d="M200.625 0.300537C90.1685 0.300537 0.625488 89.8436 0.625488 200.301C0.625488 310.757 90.1685 400.301 200.625 400.301C311.082 400.301 400.625 310.757 400.625 200.301C400.625 89.8436 311.082 0.300537 200.625 0.300537ZM300.157 100.769C289.226 89.839 274.415 83.6779 258.957 83.6318H142.294C126.836 83.6779 112.025 89.839 101.094 100.769C90.164 111.7 84.0029 126.511 83.9567 141.969V258.632C84.0029 274.09 90.164 288.901 101.094 299.832C112.025 310.762 126.836 316.923 142.294 316.969H258.957C274.415 316.923 289.226 310.762 300.157 299.832C311.087 288.901 317.248 274.09 317.294 258.632V141.969C317.248 126.511 311.087 111.7 300.157 100.769ZM142.294 60.3005H258.957C303.875 60.3005 340.625 97.0505 340.625 141.969V258.632C340.625 303.551 303.875 340.301 258.957 340.301H142.294C97.3755 340.301 60.6255 303.551 60.6255 258.632V141.969C60.6255 97.0505 97.3755 60.3005 142.294 60.3005ZM276.457 141.969C272.995 141.969 269.612 140.943 266.734 139.02C263.856 137.097 261.613 134.364 260.289 131.166C258.964 127.969 258.618 124.45 259.293 121.055C259.968 117.661 261.635 114.542 264.082 112.095C266.53 109.648 269.648 107.981 273.042 107.306C276.437 106.63 279.956 106.977 283.154 108.301C286.351 109.626 289.084 111.869 291.007 114.747C292.93 117.625 293.957 121.008 293.957 124.469C293.961 126.769 293.512 129.047 292.634 131.172C291.757 133.298 290.468 135.229 288.842 136.855C287.216 138.481 285.285 139.77 283.159 140.647C281.034 141.525 278.756 141.974 276.457 141.969ZM226.553 161.497C218.879 156.369 209.856 153.632 200.626 153.632C188.252 153.645 176.39 158.566 167.64 167.315C158.891 176.065 153.97 187.927 153.957 200.301C153.957 209.531 156.694 218.554 161.822 226.228C166.95 233.903 174.239 239.885 182.766 243.417C191.294 246.949 200.677 247.873 209.73 246.073C218.783 244.272 227.099 239.827 233.625 233.3C240.152 226.774 244.597 218.458 246.398 209.405C248.198 200.352 247.274 190.969 243.742 182.441C240.21 173.914 234.228 166.625 226.553 161.497ZM161.736 142.098C173.247 134.406 186.781 130.301 200.626 130.301C219.191 130.301 236.995 137.676 250.123 150.803C263.251 163.931 270.626 181.735 270.626 200.301C270.626 214.145 266.52 227.679 258.828 239.19C251.137 250.702 240.204 259.674 227.413 264.972C214.623 270.27 200.548 271.656 186.969 268.956C173.391 266.255 160.918 259.588 151.128 249.798C141.338 240.008 134.672 227.536 131.971 213.957C129.27 200.378 130.656 186.304 135.954 173.513C141.252 160.722 150.224 149.789 161.736 142.098Z" fill="white"/>
</svg>
