<svg width="401" height="401" viewBox="0 0 401 401" fill="none" xmlns="http://www.w3.org/2000/svg">
<path fill-rule="evenodd" clip-rule="evenodd" d="M200.75 0.300537C90.2935 0.300537 0.750488 89.8436 0.750488 200.301C0.750488 310.757 90.2935 400.301 200.75 400.301C311.207 400.301 400.75 310.757 400.75 200.301C400.75 89.8436 311.207 0.300537 200.75 0.300537ZM322.964 317.083V226.716C322.964 178.318 297.112 155.785 262.638 155.785C234.802 155.785 222.372 171.105 215.416 181.821V159.483H163.001C163.711 174.289 163.001 317.083 163.001 317.083H215.416V229.067C215.416 224.353 215.771 219.662 217.155 216.294C220.939 206.877 229.56 197.129 244.036 197.129C262.993 197.129 270.574 211.579 270.574 232.766V317.083H322.964ZM215.416 181.821V182.335H215.073L215.416 181.821ZM78.5371 110.742C78.5371 95.2749 90.2692 83.5183 108.186 83.5183H108.198C126.139 83.5183 137.161 95.2749 137.479 110.742C137.479 125.867 126.127 137.978 107.843 137.978H107.5C89.9263 137.978 78.5371 125.867 78.5371 110.742ZM134.038 317.083H81.6477V159.483H134.038V317.083Z" fill="white"/>
</svg>
