<svg width="401" height="401" viewBox="0 0 401 401" fill="none" xmlns="http://www.w3.org/2000/svg">
<path fill-rule="evenodd" clip-rule="evenodd" d="M0.500488 200.301C0.500488 89.8436 90.0435 0.300537 200.5 0.300537C310.957 0.300537 400.5 89.8436 400.5 200.301C400.5 310.757 310.957 400.301 200.5 400.301C90.0435 400.301 0.500488 310.757 0.500488 200.301ZM92.5566 122.062L200.5 197.622L308.444 122.062C306.437 118.092 302.309 115.338 297.6 115.338H103.4C98.6916 115.338 94.5639 118.092 92.5566 122.062ZM334.012 127.264C333.898 107.306 317.584 91.0632 297.6 91.0632H103.4C83.4162 91.0632 67.1027 107.307 66.9886 127.265C66.9866 127.385 66.9864 127.505 66.988 127.624V273.126C66.988 293.18 83.3459 309.538 103.4 309.538H297.6C317.655 309.538 334.013 293.18 334.013 273.126V127.625C334.014 127.505 334.014 127.385 334.012 127.264ZM309.738 150.788V273.126C309.738 279.773 304.248 285.263 297.6 285.263H103.4C96.7526 285.263 91.263 279.773 91.263 273.126V150.788L193.54 222.381C197.719 225.307 203.282 225.307 207.461 222.381L309.738 150.788Z" fill="white"/>
</svg>
