<svg width="201" height="201" viewBox="0 0 201 201" fill="none" xmlns="http://www.w3.org/2000/svg">
<path fill-rule="evenodd" clip-rule="evenodd" d="M100.267 0.307373C45.0386 0.307373 0.26709 45.0789 0.26709 100.307C0.26709 155.536 45.0386 200.307 100.267 200.307C155.496 200.307 200.267 155.536 200.267 100.307C200.267 45.0789 155.496 0.307373 100.267 0.307373ZM75.3148 133.369L52.6664 156.018V63.8957C52.6664 60.5456 53.9972 57.3327 56.3661 54.9639C58.735 52.595 61.9479 51.2642 65.298 51.2642H147.403C150.753 51.2642 153.966 52.595 156.335 54.9639C158.704 57.3327 160.035 60.5456 160.035 63.8957V120.738C160.035 124.088 158.704 127.301 156.335 129.67C153.966 132.039 150.753 133.369 147.403 133.369H75.3148ZM46.3506 164.948H52.6664L77.9295 139.685H147.403C152.428 139.685 157.248 137.689 160.801 134.136C164.354 130.582 166.351 125.763 166.351 120.738V63.8957C166.351 58.8706 164.354 54.0512 160.801 50.4979C157.248 46.9446 152.428 44.9484 147.403 44.9484H65.298C60.2728 44.9484 55.4535 46.9446 51.9001 50.4979C48.3468 54.0512 46.3506 58.8706 46.3506 63.8957V164.948ZM141.087 70.2115H71.6137V76.5273H141.087V70.2115ZM141.087 89.1589H71.6137V95.4747H141.087V89.1589ZM122.14 108.106H71.6137V114.422H122.14V108.106Z" fill="white"/>
</svg>
