<svg width="283" height="96" viewBox="0 0 283 96" fill="none" xmlns="http://www.w3.org/2000/svg">
<path fill-rule="evenodd" clip-rule="evenodd" d="M0 26.5C1.32958e-05 8.5 3.50002 1 141.5 0C279.5 1 283 8.5 283 26.5V69.5C283 87.5 279.5 95 141.5 96C3.50003 95 2.85546e-05 87.5 1.52588e-05 69.5L0 26.5ZM199 28.9114L212.5 18.9114C172 12.4113 82.7454 12.9113 75.5 28.9114C68.8193 43.6646 100.954 48.3446 129.68 52.5282C152.552 55.8592 173.263 58.8756 170.5 66.4113C167.107 75.6643 104.5 69.9114 71.5 65.4114L70 76.9114C111.833 82.0781 197.9 88.4114 211.5 64.4114C219.045 51.0968 185.907 46.8555 157.035 43.1603C133.865 40.1948 113.442 37.581 119 30.9114C125.14 23.5435 156.971 25.8935 182.945 27.8111C188.698 28.2358 194.164 28.6394 199 28.9114Z" fill="white"/>
</svg>
