<svg width="201" height="201" viewBox="0 0 201 201" fill="none" xmlns="http://www.w3.org/2000/svg">
<path fill-rule="evenodd" clip-rule="evenodd" d="M14.8804 0.91571C7.14838 0.91571 0.880371 7.18373 0.880371 14.9158V186.916C0.880371 194.648 7.14837 200.916 14.8804 200.916H186.88C194.612 200.916 200.88 194.648 200.88 186.916V14.9158C200.88 7.18373 194.612 0.91571 186.88 0.91571H14.8804ZM133.62 20.8644C136.054 20.1677 137.895 18.0406 137.895 15.5081C137.895 12.6413 140.219 10.3172 143.086 10.3172H146.514C149.389 10.3172 151.719 12.6475 151.719 15.522C151.719 18.05 153.548 20.1763 155.975 20.8866C158.671 21.6762 161.273 22.7529 163.734 24.0976C165.85 25.254 168.515 25.0559 170.232 23.3623C172.181 21.4388 175.314 21.4374 177.266 23.3591L179.95 26.0025C181.887 27.9097 181.887 31.0331 179.951 32.941C178.245 34.6223 178.047 37.2797 179.22 39.3681C180.561 41.7546 181.638 44.2757 182.434 46.8879C183.18 49.338 185.336 51.1861 187.897 51.1861C190.82 51.1861 193.191 53.5562 193.191 56.48V59.5212C193.191 62.4416 190.823 64.809 187.903 64.809C185.343 64.809 183.188 66.6568 182.459 69.111C181.673 71.7591 180.616 74.2905 179.307 76.6716C178.091 78.8834 178.257 81.672 180 83.4968C182.033 85.624 181.927 89.0048 179.764 90.9998L177.254 93.3154C175.194 95.2154 171.99 95.1096 170.06 93.0777C168.335 91.261 165.564 90.9916 163.346 92.1564C161.002 93.3871 158.537 94.3793 155.989 95.1175C153.559 95.8215 151.726 97.9483 151.726 100.478C151.726 103.35 149.398 105.678 146.526 105.678H143.098C140.228 105.678 137.902 103.352 137.902 100.481C137.902 97.9535 136.07 95.8294 133.644 95.1188C131.074 94.3661 128.624 93.3573 126.307 92.1249C123.942 90.8667 120.98 91.1129 119.102 93.0244C116.965 95.2002 113.468 95.2286 111.295 93.0878L109.214 91.0365C107.059 88.9135 107.087 85.4297 109.274 83.3409C111.198 81.5035 111.445 78.5509 110.169 76.2165C108.942 73.9729 107.935 71.6031 107.177 69.1192C106.43 66.668 104.275 64.8158 101.712 64.8158C98.7916 64.8158 96.4235 62.4477 96.4235 59.5264V56.4828C96.4235 53.5613 98.7918 51.1929 101.713 51.1929C104.275 51.1929 106.431 49.3419 107.172 46.8887C107.915 44.4254 108.907 42.0415 110.132 39.7726C111.316 37.5797 111.047 34.8123 109.216 33.1215C107.171 31.2335 107.066 28.0379 108.982 26.0194L111.306 23.5704C113.355 21.4121 116.758 21.3026 118.941 23.3248C120.808 25.054 123.608 25.2192 125.85 24.0164C128.317 22.6931 130.922 21.6363 133.62 20.8644V20.8644ZM154.586 34.751C151.485 33.4971 148.162 32.8624 144.81 32.8837C144.808 32.8837 144.807 32.8821 144.807 32.8803C144.807 32.8784 144.805 32.8769 144.803 32.8769C130.601 32.8786 119.315 44.0011 119.315 57.9975C119.315 71.9951 130.603 83.1182 144.807 83.1182C159.011 83.1182 170.298 71.9951 170.298 57.9975C170.319 54.6932 169.674 51.4175 168.401 48.3607C167.127 45.3039 165.25 42.5268 162.879 40.1905C160.507 37.8543 157.689 36.0053 154.586 34.751V34.751ZM45.0966 84.8454C43.6228 81.1842 45.3987 77.0217 49.0615 75.552C49.0615 75.552 51.1144 74.4641 54.0813 75.4012C54.0813 75.4012 56.6675 76.1304 57.9311 79.9319C59.2043 83.086 62.5959 84.7634 65.9685 84.3211C67.8154 84.0789 69.6943 83.9424 71.5957 83.9424C73.3886 83.9568 75.1776 84.0713 76.9541 84.2849C80.4809 84.709 84.0378 82.9602 85.3627 79.6643L85.4477 79.4528C86.8604 75.9385 90.8528 74.2327 94.3688 75.6412C97.8943 77.0535 99.6029 81.0603 98.1812 84.5821L98.0717 84.8534C96.7527 88.121 98.05 91.8182 100.817 94C103.539 96.1469 106.015 98.582 108.198 101.262C110.457 104.033 114.196 105.342 117.524 104.037L118.073 103.822C121.522 102.47 125.417 104.131 126.829 107.555C128.279 111.069 126.562 115.089 123.021 116.471L122.76 116.572C119.436 117.87 117.672 121.437 118.122 124.977C118.338 126.672 118.458 128.394 118.458 130.131C118.458 131.875 118.335 133.602 118.118 135.303C117.667 138.834 119.431 142.383 122.745 143.682L123.023 143.791C126.56 145.178 128.273 149.196 126.822 152.708C125.41 156.129 121.518 157.79 118.07 156.442L117.542 156.236C114.204 154.931 110.458 156.26 108.215 159.054C106.003 161.808 103.486 164.309 100.71 166.511C97.9971 168.664 96.7433 172.306 98.0586 175.511L98.1234 175.669C99.5708 179.195 97.8672 183.225 94.3294 184.644C90.8319 186.046 86.8578 184.366 85.4269 180.88L85.3511 180.696C84.0207 177.455 80.5206 175.744 77.0448 176.184C75.2527 176.411 73.4298 176.538 71.5888 176.538C69.7717 176.525 67.9587 176.408 66.1589 176.188C62.6725 175.761 59.1498 177.472 57.816 180.721L57.752 180.877C56.3202 184.365 52.344 186.047 48.8436 184.645C45.3012 183.226 43.5947 179.191 45.0438 175.661L45.0951 175.535C46.4135 172.323 45.1402 168.673 42.4039 166.536C39.5503 164.307 36.9653 161.764 34.6997 158.955C32.4873 156.212 28.795 154.925 25.5216 156.23L25.1156 156.392C21.6622 157.769 17.7439 156.112 16.325 152.676C14.8811 149.18 16.5729 145.177 20.0869 143.777L20.2907 143.696C23.5595 142.393 25.2857 138.873 24.8398 135.382C24.6197 133.659 24.4976 131.909 24.4976 130.138C24.5112 128.392 24.625 126.65 24.838 124.92C25.2687 121.421 23.5403 117.879 20.2638 116.576L20.0959 116.51C16.5775 115.111 14.8814 111.106 16.3252 107.606C17.7439 104.167 21.6649 102.509 25.1207 103.886L25.5536 104.059C28.8162 105.359 32.4973 104.097 34.725 101.382C36.9677 98.6476 39.513 96.1691 42.3134 93.9919C45.1011 91.8245 46.4151 88.1211 45.0966 84.8454V84.8454ZM104.621 130.145C104.621 112.013 89.9884 97.5722 71.5818 97.5722C53.1822 97.5722 38.3215 112.006 38.3215 130.145C38.316 134.451 39.1726 138.715 40.8422 142.694C42.5117 146.674 44.9614 150.289 48.051 153.334C51.1406 156.378 54.8094 158.792 58.8472 160.438C62.885 162.083 67.2125 162.927 71.5818 162.922C89.9884 162.922 104.634 148.284 104.621 130.145V130.145Z" fill="white"/>
</svg>
