<svg width="201" height="201" viewBox="0 0 201 201" fill="none" xmlns="http://www.w3.org/2000/svg">
<path fill-rule="evenodd" clip-rule="evenodd" d="M100.267 0.307373C45.0386 0.307373 0.26709 45.0789 0.26709 100.307C0.26709 155.536 45.0386 200.307 100.267 200.307C155.496 200.307 200.267 155.536 200.267 100.307C200.267 45.0789 155.496 0.307373 100.267 0.307373ZM115.68 114.274C115.68 114.274 117.638 119.669 122.543 121.632L122.535 121.641C123.131 121.879 124.056 122.243 125.226 122.704C133.688 126.039 154.941 134.414 156.883 136.356C159.101 138.57 158.841 148.869 158.841 148.869H42.0786C42.0786 148.869 41.8273 138.565 44.0458 136.356C45.9916 134.414 67.2556 126.033 75.7107 122.701C76.8768 122.242 77.7994 121.878 78.3939 121.641C83.2989 119.678 85.2574 114.283 85.2574 114.283C85.2574 114.283 87.4673 115.505 87.4673 112.073C87.4673 110.889 87.2043 110.785 86.7691 110.613C85.9427 110.286 84.4951 109.712 83.0476 101.033C83.0476 101.033 76.9206 99.3124 78.1512 85.0871L79.6115 84.5931C78.3852 82.1449 77.159 70.6017 77.159 68.8858C77.159 67.1699 79.6115 60.3064 81.0847 58.8331C82.5493 57.3599 86.2324 57.1173 86.2324 57.1173C86.2324 55.397 91.1374 52.2123 97.0303 51.9609C99.6202 51.8504 100.5 51.6938 101.362 51.762C102.461 51.8489 103.53 52.3006 108.067 53.6768C115.162 55.8292 117.165 58.7299 120.029 62.8771C120.434 63.4637 120.856 64.0752 121.313 64.7131C124.996 69.8694 121.313 85.0784 121.313 85.0784H122.786C124.012 99.3038 117.89 101.024 117.89 101.024C116.442 109.704 114.994 110.277 114.168 110.604C113.733 110.777 113.47 110.881 113.47 112.065C113.47 115.496 115.68 114.274 115.68 114.274ZM67.8689 119.543C67.8689 119.543 68.0769 120.107 68.5102 120.887H68.5189C47.5946 129.215 42.5379 131.75 40.991 133.288C38.0922 136.178 37.6286 143.323 37.7586 148.861H35.2671V126.182L36.2724 125.783C40.4321 124.128 42.0916 119.543 42.0916 119.543C42.0916 119.543 43.9635 120.592 43.9635 117.68C43.9635 116.675 43.74 116.586 43.3706 116.438C42.6698 116.159 41.4442 115.67 40.2241 108.321C40.2241 108.321 35.0244 106.865 36.0644 94.8104L37.3036 94.3944C36.3937 92.5616 35.4751 84.7794 35.2671 81.9456V80.7323C35.4924 78.8995 37.3773 73.7345 38.5472 72.5646C39.7951 71.3166 42.9149 71.113 42.9149 71.113C42.9149 69.6484 47.0746 66.9533 52.0663 66.7366C54.2565 66.6433 55.0035 66.5106 55.7357 66.5678C56.6694 66.6408 57.5789 67.0225 61.4257 68.1882C67.4326 70.0108 69.134 72.4756 71.5623 75.9937C71.9051 76.4902 72.2624 77.0078 72.6483 77.5476C73.5365 78.7868 73.9135 80.728 74.0002 82.8599L73.8355 84.7057C73.7104 86.1408 73.6569 87.5811 73.6752 89.0215C73.2679 92.2452 72.6439 94.8017 72.6439 94.8017H73.9005C74.9404 106.861 69.7408 108.312 69.7408 108.312C68.5148 115.668 67.2889 116.154 66.5888 116.432C66.2199 116.578 65.997 116.667 65.997 117.672C65.997 120.583 67.8689 119.543 67.8689 119.543ZM164.002 77.5476C164.717 78.5485 165.094 80.0087 165.267 81.6466V86.7423C164.933 90.954 163.998 94.8104 163.998 94.8104H165.254C165.267 94.8841 165.267 94.9491 165.267 95.0271V100.348C164.578 107.324 161.094 108.321 161.094 108.321C159.871 115.673 158.644 116.163 157.943 116.443C157.574 116.59 157.351 116.679 157.351 117.68C157.351 120.583 159.227 119.543 159.227 119.543C159.227 119.543 160.891 124.123 165.05 125.783L165.267 125.878V148.865H163.187C163.313 143.323 162.862 136.182 159.959 133.288C158.43 131.758 153.416 129.245 132.748 121.012C133.224 120.159 133.458 119.539 133.458 119.539C133.458 119.539 135.321 120.588 135.321 117.676C135.321 116.671 135.099 116.582 134.73 116.434C134.031 116.154 132.808 115.665 131.582 108.317C131.582 108.317 126.382 106.861 127.422 94.8061L128.662 94.3944C128.142 93.3545 127.622 90.3907 127.232 87.5049C127.229 87.3754 127.226 87.2463 127.223 87.1172C127.206 86.3431 127.189 85.5686 127.115 84.7144L126.768 80.754H126.625C126.833 78.9428 128.74 73.7431 129.909 72.5646C131.157 71.3166 134.277 71.113 134.277 71.113C134.277 69.6484 138.437 66.9533 143.42 66.7366C145.619 66.6432 146.366 66.5103 147.099 66.5681C148.031 66.6416 148.939 67.0237 152.779 68.1882C158.803 70.0148 160.503 72.4832 162.935 76.016C163.272 76.5057 163.623 77.0158 164.002 77.5476Z" fill="white"/>
</svg>
