<svg width="400" height="401" viewBox="0 0 400 401" fill="none" xmlns="http://www.w3.org/2000/svg">
<path fill-rule="evenodd" clip-rule="evenodd" d="M200 0.300537C89.5431 0.300537 0 89.8436 0 200.301C0 310.757 89.5431 400.301 200 400.301C310.457 400.301 400 310.757 400 200.301C400 89.8436 310.457 0.300537 200 0.300537ZM313.293 149.787V142.2C324.788 134.153 334.445 124.151 342.262 112.195C331.686 116.794 320.535 119.783 308.809 121.162C315.017 117.484 320.305 112.885 324.674 107.367C329.042 101.849 332.376 95.7562 334.675 89.0886C322.949 95.7562 310.534 100.47 297.428 103.229C292.14 97.2507 285.817 92.6523 278.46 89.4334C271.102 86.2146 263.17 84.6051 254.663 84.6051C247.076 84.3752 239.603 85.8697 232.246 89.0886C224.889 92.3074 218.681 96.5609 213.623 101.849C208.564 107.137 204.426 113.345 201.207 120.473C197.988 127.6 196.379 135.187 196.379 143.235C196.379 145.304 196.494 147.488 196.723 149.787C196.953 152.086 197.298 154.271 197.758 156.34C173.387 155.19 150.855 149.212 130.162 138.406C109.469 127.6 91.8803 113.23 77.3954 95.2964C74.8663 99.6649 72.912 104.378 71.5325 109.436C70.1529 114.495 69.4632 119.668 69.4632 124.956C69.6931 135.072 72.1073 144.384 76.7056 152.891C81.304 161.398 87.6268 168.296 95.674 173.584C86.2473 173.354 77.3954 170.825 69.1183 165.997V166.686C69.3482 173.814 70.6128 180.596 72.912 187.034C75.2112 193.472 78.43 199.22 82.5686 204.278C86.7071 209.336 91.6504 213.59 97.3984 217.039C103.146 220.487 109.354 222.902 116.022 224.281C110.734 225.431 105.561 226.005 100.502 226.005C96.8236 226.005 93.1449 225.661 89.4662 224.971C93.3748 236.697 100.272 246.353 110.159 253.941C120.045 261.528 131.426 265.437 144.302 265.667C134.415 273.254 123.264 279.347 110.849 283.945C98.433 288.543 85.3276 290.843 71.5325 290.843C66.7042 290.843 62.1058 290.498 57.7373 289.808C71.0726 298.085 85.2127 304.523 100.157 309.121C115.102 313.72 130.852 316.019 147.406 316.019C165.11 316.019 181.664 313.72 197.068 309.121C212.473 304.523 226.153 298.2 238.109 290.153C250.065 282.106 260.871 272.679 270.528 261.873C280.184 251.067 288.116 239.456 294.324 227.04C300.532 214.624 305.245 201.864 308.464 188.759C311.683 175.653 313.293 162.663 313.293 149.787Z" fill="white"/>
</svg>
