<svg width="401" height="401" viewBox="0 0 401 401" fill="none" xmlns="http://www.w3.org/2000/svg">
<path fill-rule="evenodd" clip-rule="evenodd" d="M200.375 0.300537C89.9185 0.300537 0.375488 89.8436 0.375488 200.301C0.375488 310.757 89.9185 400.301 200.375 400.301C310.832 400.301 400.375 310.757 400.375 200.301C400.375 89.8436 310.832 0.300537 200.375 0.300537ZM172.842 159.967V234.901L244.882 197.567L172.842 159.967ZM320.442 120.514C328.442 128.607 331.042 146.994 331.042 146.994C331.042 146.994 333.709 168.567 333.709 190.154V210.381C333.709 231.954 331.042 253.541 331.042 253.541C331.042 253.541 328.442 271.914 320.442 280.007C311.32 289.573 301.193 290.56 295.46 291.119C294.824 291.181 294.242 291.238 293.722 291.301C256.415 293.994 200.375 294.074 200.375 294.074C200.375 294.074 131.042 293.447 109.709 291.407C108.689 291.215 107.45 291.065 106.046 290.896C99.2857 290.082 88.7 288.807 80.3087 280.007C72.3087 271.914 69.7087 253.541 69.7087 253.541C69.7087 253.541 67.042 231.954 67.042 210.381V190.154C67.042 168.567 69.7087 146.994 69.7087 146.994C69.7087 146.994 72.3087 128.607 80.3087 120.514C89.4433 110.947 99.5612 109.961 105.293 109.402C105.928 109.34 106.509 109.283 107.029 109.221C144.349 106.527 200.322 106.527 200.322 106.527H200.429C200.429 106.527 256.415 106.527 293.722 109.221C294.239 109.283 294.817 109.339 295.448 109.401C301.179 109.962 311.314 110.953 320.442 120.514Z" fill="white"/>
</svg>
