<svg width="650" height="600" viewBox="0 0 650 600" fill="none" xmlns="http://www.w3.org/2000/svg">
<g clip-path="url(#clip0)">
<g filter="url(#filter0_d)">
<path d="M625 564.421C625 572.271 624.626 584.047 623.879 599.748H25.5607C25.5607 596.009 25.4673 590.215 25.2804 582.365C25.0935 574.514 25 568.533 25 564.421C25 553.206 25.1869 546.29 25.5607 543.673C30.0467 525.355 42.0093 509.561 61.4486 496.29C80.8879 483.019 101.729 473.112 123.972 466.57C146.215 460.028 169.673 451.243 194.346 440.215C219.019 429.187 237.15 416.944 248.738 403.486C255.093 395.262 258.271 388.159 258.271 382.178C258.271 373.953 256.215 360.308 252.103 341.243C250.607 333.393 248.645 326.57 246.215 320.776C243.785 314.981 240.794 308.813 237.243 302.271C233.692 295.729 230.794 289.841 228.551 284.607C222.944 271.523 216.776 246.85 210.047 210.589C207.804 196.383 206.682 182.364 206.682 168.533C206.682 129.28 216.682 97.8785 236.682 74.3271C256.682 50.7757 286.122 39 325 39C363.879 39 393.318 50.7757 413.318 74.3271C433.318 97.8785 443.318 129.28 443.318 168.533C443.318 180.121 442.009 194.14 439.393 210.589C434.159 243.86 428.178 268.533 421.449 284.607C419.206 289.841 416.308 295.729 412.757 302.271C409.206 308.813 406.215 314.981 403.785 320.776C401.355 326.57 399.393 333.393 397.897 341.243C393.785 360.308 391.729 373.953 391.729 382.178C391.729 388.907 394.907 396.009 401.262 403.486C412.85 416.944 430.981 429.187 455.654 440.215C480.327 451.243 503.692 460.028 525.748 466.57C547.804 473.112 568.551 483.019 587.991 496.29C607.43 509.561 619.393 525.355 623.879 543.673C624.626 546.664 625 553.579 625 564.421Z" fill="#C6C6C6"/>
</g>
</g>
<defs>
<filter id="filter0_d" x="4.72375" y="26.8343" width="640.552" height="601.3" filterUnits="userSpaceOnUse" color-interpolation-filters="sRGB">
<feFlood flood-opacity="0" result="BackgroundImageFix"/>
<feColorMatrix in="SourceAlpha" type="matrix" values="0 0 0 0 0 0 0 0 0 0 0 0 0 0 0 0 0 0 127 0"/>
<feOffset dy="8.1105"/>
<feGaussianBlur stdDeviation="10.1381"/>
<feColorMatrix type="matrix" values="0 0 0 0 0 0 0 0 0 0 0 0 0 0 0 0 0 0 0.08 0"/>
<feBlend mode="normal" in2="BackgroundImageFix" result="effect1_dropShadow"/>
<feBlend mode="normal" in="SourceGraphic" in2="effect1_dropShadow" result="shape"/>
</filter>
<clipPath id="clip0">
<rect width="650" height="600" fill="white"/>
</clipPath>
</defs>
</svg>
