<svg width="1000" height="1000" viewBox="0 0 1000 1000" fill="none" xmlns="http://www.w3.org/2000/svg">
<path fill-rule="evenodd" clip-rule="evenodd" d="M770.294 505.82C912.782 327.549 937.398 103.44 796.565 62.8967C662.354 24.2602 511.697 98.105 376.083 237.784C246.956 388.019 240.606 547.012 346.989 637.5C552.72 769.902 763.267 514.612 770.294 505.82ZM750.498 484.512C871.18 344.102 906.247 140.027 797.177 97.8542C675.432 50.781 525.329 121.959 404.647 262.369C283.964 402.779 309.378 539.321 378.043 593.588C460.515 658.768 629.816 624.922 750.498 484.512Z" fill="white"/>
<path d="M807.013 659.138C894.203 535.325 962.64 372.257 954.263 230.709L913.292 245.99C917.722 616.146 532.305 897.824 345.672 874.892L314.528 944.212C557.65 948.23 742.589 750.622 807.013 659.138Z" fill="white"/>
<path d="M190.427 874.614C190.427 914.761 157.882 947.307 117.735 947.307C77.5876 947.307 45.042 914.761 45.042 874.614C45.042 834.467 77.5876 801.921 117.735 801.921C157.882 801.921 190.427 834.467 190.427 874.614Z" fill="white"/>
</svg>
