<svg width="117" height="59" viewBox="0 0 117 59" fill="none" xmlns="http://www.w3.org/2000/svg">
<path fill-rule="evenodd" clip-rule="evenodd" d="M29.4762 4.76077C29.4762 2.13147 31.6076 0 34.237 0H89.9192C92.5486 0 94.68 2.13147 94.68 4.76077V42.9036C94.68 45.5329 92.5486 47.6644 89.9192 47.6644H34.237C31.6076 47.6644 29.4762 45.5329 29.4762 42.9036V4.76077ZM50.5746 20.5967L41.0781 38.4138C40.5549 39.3955 39.3349 39.7672 38.3532 39.2439C37.3716 38.7207 36.9999 37.5007 37.5232 36.5191L48.531 15.8665C49.4431 14.1552 51.909 14.1942 52.7666 15.9334L58.895 28.3618L67.2692 24.3582C68.4129 23.8114 69.7688 23.969 70.7566 24.7636L84.598 35.897C85.4648 36.5942 85.6022 37.8621 84.905 38.7289C84.2078 39.5957 82.9399 39.7331 82.0731 39.0359L68.5909 28.1914L59.8166 32.3863C58.2789 33.1215 56.4359 32.4833 55.6821 30.9546L50.5746 20.5967ZM78.3241 19.8306C81.2289 19.8306 83.5838 17.4758 83.5838 14.5709C83.5838 11.666 81.2289 9.31117 78.3241 9.31117C75.4192 9.31117 73.0643 11.666 73.0643 14.5709C73.0643 17.4758 75.4192 19.8306 78.3241 19.8306ZM3.94148 15.7404H26.4391V43.338C26.4391 47.6864 29.9642 51.2116 34.3127 51.2116H53.9827V51.2606C53.9827 53.4374 52.2181 55.2021 50.0412 55.2021H3.94148C1.76466 55.2021 0 53.4374 0 51.2606V19.6819C0 17.5051 1.76466 15.7404 3.94148 15.7404ZM14.887 30.5481C13.8224 29.6298 12.1813 29.9336 11.516 31.172L3.76389 45.6028C3.23746 46.5827 3.60512 47.8039 4.58507 48.3303C5.56502 48.8567 6.78618 48.4891 7.3126 47.5091L13.9843 35.0896L19.4071 39.7675C20.2494 40.4941 21.5212 40.4003 22.2478 39.5581C22.9744 38.7158 22.8806 37.4439 22.0384 36.7173L14.887 30.5481ZM73.0645 54.9176V51.2114H90.0218C94.3703 51.2114 97.8954 47.6863 97.8954 43.3378V26.3817H113.266C115.015 26.3817 116.433 27.7994 116.433 29.5482V54.9176C116.433 56.6664 115.015 58.0841 113.266 58.0841H76.231C74.4822 58.0841 73.0645 56.6664 73.0645 54.9176ZM108.394 38.9242C110.331 38.9242 111.901 37.3543 111.901 35.4177C111.901 33.4811 110.331 31.9112 108.394 31.9112C106.458 31.9112 104.888 33.4811 104.888 35.4177C104.888 37.3543 106.458 38.9242 108.394 38.9242Z" fill="#969696"/>
</svg>
