<svg width="201" height="201" viewBox="0 0 201 201" fill="none" xmlns="http://www.w3.org/2000/svg">
<path fill-rule="evenodd" clip-rule="evenodd" d="M142.381 0.295532H59.0511C26.9663 0.295532 0.716309 26.5455 0.716309 58.6304V141.961C0.716309 174.046 26.9663 200.296 59.0511 200.296H142.381C174.466 200.296 200.716 174.046 200.716 141.961V58.6304C200.716 26.5455 174.466 0.295532 142.381 0.295532ZM154.881 58.6304C152.409 58.6304 149.992 57.8973 147.937 56.5238C145.881 55.1503 144.279 53.198 143.333 50.914C142.387 48.6299 142.139 46.1165 142.622 43.6918C143.104 41.267 144.294 39.0397 146.043 37.2916C147.791 35.5434 150.018 34.3529 152.443 33.8706C154.867 33.3883 157.381 33.6358 159.665 34.5819C161.949 35.528 163.901 37.1302 165.275 39.1858C166.648 41.2414 167.381 43.6581 167.381 46.1304C167.385 47.7729 167.064 49.4 166.437 50.9181C165.81 52.4363 164.89 53.8157 163.728 54.9771C162.567 56.1386 161.187 57.0592 159.669 57.6861C158.151 58.313 156.524 58.6339 154.881 58.6304ZM119.236 72.5786C113.754 68.9158 107.309 66.9607 100.716 66.9607C91.8783 66.9702 83.4049 70.4853 77.1555 76.7347C70.9061 82.9841 67.391 91.4575 67.3815 100.296C67.3815 106.889 69.3366 113.333 72.9994 118.815C76.6623 124.297 81.8685 128.57 87.9596 131.093C94.0508 133.616 100.753 134.276 107.22 132.99C113.686 131.704 119.626 128.529 124.288 123.867C128.95 119.205 132.124 113.265 133.411 106.799C134.697 100.333 134.037 93.63 131.514 87.5388C128.991 81.4477 124.718 76.2415 119.236 72.5786ZM72.9378 58.722C81.1603 53.228 90.8273 50.2955 100.716 50.2955C113.977 50.2955 126.695 55.5634 136.072 64.9402C145.448 74.317 150.716 87.0347 150.716 100.296C150.716 110.185 147.784 119.852 142.29 128.074C136.796 136.296 128.987 142.705 119.851 146.49C110.714 150.274 100.661 151.264 90.9618 149.335C81.2628 147.406 72.3536 142.643 65.361 135.651C58.3684 128.658 53.6063 119.749 51.6771 110.05C49.7478 100.351 50.738 90.2977 54.5224 81.1614C58.3067 72.025 64.7154 64.2161 72.9378 58.722Z" fill="#909090"/>
</svg>
