<svg width="210" height="201" viewBox="0 0 210 201" fill="none" xmlns="http://www.w3.org/2000/svg">
<path d="M209.921 122.915V200.296H165.059V128.095C165.059 109.954 158.568 97.5795 142.335 97.5795C129.94 97.5795 122.557 105.927 119.317 113.991C118.132 116.875 117.828 120.891 117.828 124.929V200.296H72.9451C72.9451 200.296 73.5533 78.022 72.9451 65.3438H117.828V84.4713L117.534 84.9117H117.828V84.4713C123.784 75.2955 134.428 62.1768 158.264 62.1768C187.784 62.1768 209.921 81.4721 209.921 122.915ZM26.0071 0.295532C10.6653 0.295532 0.619141 10.3626 0.619141 23.6072C0.619141 36.5581 10.3717 46.9293 25.4199 46.9293H25.7135C41.37 46.9293 51.091 36.5581 51.091 23.6072C50.8184 10.3626 41.3805 0.295532 26.0176 0.295532H26.0071ZM3.28273 200.296H48.1443V65.3438H3.28273V200.296Z" fill="#909090"/>
</svg>
