<svg width="251" height="201" viewBox="0 0 251 201" fill="none" xmlns="http://www.w3.org/2000/svg">
<path fill-rule="evenodd" clip-rule="evenodd" d="M225.536 0.295532H25.5361C11.7861 0.295532 0.536133 11.5455 0.536133 25.2955V175.296C0.536133 189.046 11.7861 200.296 25.5361 200.296H225.536C239.286 200.296 250.536 189.046 250.536 175.296V25.2955C250.536 11.5455 239.286 0.295532 225.536 0.295532ZM225.61 46.2048C230.787 41.9467 231.532 34.2979 227.274 29.1207C223.016 23.9434 215.367 23.1982 210.19 27.4563L125.618 97.0131L42.9019 27.5365C37.769 23.2252 30.1129 23.8912 25.8015 29.0241C21.4901 34.157 22.1562 41.8132 27.2891 46.1245L117.73 122.089C122.207 125.85 128.73 125.884 133.246 122.17L225.61 46.2048Z" fill="#909090"/>
</svg>
