<svg width="246" height="201" viewBox="0 0 246 201" fill="none" xmlns="http://www.w3.org/2000/svg">
<path d="M220.904 50.0869V56.6436C220.904 67.7702 219.513 78.9961 216.732 90.3214C213.95 101.647 209.877 112.674 204.512 123.403C199.148 134.132 192.293 144.166 183.948 153.504C175.603 162.843 166.265 170.989 155.933 177.943C145.601 184.897 133.779 190.361 120.467 194.335C107.155 198.309 92.8491 200.296 77.5501 200.296C63.2445 200.296 49.6343 198.309 36.7196 194.335C23.8048 190.361 11.5855 184.798 0.0615234 177.645C3.83661 178.241 7.81038 178.539 11.9828 178.539C23.9042 178.539 35.2294 176.552 45.9586 172.578C56.6878 168.605 66.3242 163.339 74.8678 156.783C63.7412 156.584 53.9062 153.206 45.3625 146.65C36.8189 140.093 30.8583 131.748 27.4806 121.615C30.6596 122.211 33.8386 122.509 37.0176 122.509C41.3888 122.509 45.8593 122.012 50.4291 121.019C44.6671 119.827 39.3025 117.74 34.3353 114.76C29.3681 111.78 25.0963 108.104 21.5199 103.733C17.9435 99.3617 15.1619 94.3945 13.175 88.8312C11.1881 83.2679 10.0953 77.4066 9.89661 71.2473V70.6512C17.0494 74.8237 24.6989 77.0092 32.8452 77.2079C25.8911 72.6381 20.4271 66.6774 16.4533 59.3259C12.4796 51.9745 10.3933 43.9276 10.1946 35.1853C10.1946 30.6154 10.7907 26.1449 11.9828 21.7738C13.175 17.4026 14.8638 13.3295 17.0494 9.55442C29.5668 25.0521 44.7665 37.4702 62.6485 46.8085C80.5304 56.1469 100.002 61.3128 121.063 62.3063C120.666 60.5181 120.368 58.6305 120.169 56.6436C119.97 54.6567 119.871 52.7692 119.871 50.981C119.871 44.0269 121.262 37.4702 124.043 31.3108C126.825 25.1515 130.401 19.7869 134.772 15.2171C139.144 10.6472 144.508 6.97147 150.866 4.18983C157.224 1.40819 163.682 0.116712 170.238 0.315401C177.59 0.315401 184.445 1.70622 190.803 4.48786C197.161 7.2695 202.625 11.2433 207.194 16.4092C218.52 14.0249 229.249 9.9518 239.382 4.18983C237.395 9.9518 234.514 15.2171 230.739 19.9856C226.964 24.7541 222.394 28.7279 217.03 31.9069C227.163 30.7148 236.799 28.1318 245.939 24.158C239.183 34.4899 230.838 43.1328 220.904 50.0869Z" fill="#909090"/>
</svg>
