<svg width="286" height="201" viewBox="0 0 286 201" fill="none" xmlns="http://www.w3.org/2000/svg">
<path fill-rule="evenodd" clip-rule="evenodd" d="M113.631 137.193V57.284L190.455 97.3807L113.631 137.193ZM282.336 43.4492C282.336 43.4492 279.563 23.8417 271.032 15.2109C260.226 3.89286 248.097 3.83599 242.538 3.16771C202.754 0.295534 143.05 0.295532 143.05 0.295532H142.936C142.936 0.295532 83.2461 0.295534 43.448 3.16771C37.8885 3.83599 25.7742 3.87864 14.9537 15.2109C6.42253 23.8417 3.64989 43.4492 3.64989 43.4492C3.64989 43.4492 0.806152 66.4551 0.806152 89.4751V111.045C0.806152 134.051 3.64989 157.071 3.64989 157.071C3.64989 157.071 6.42253 176.664 14.9537 185.295C25.7599 196.627 39.9786 196.257 46.3059 197.452C69.0558 199.627 142.993 200.296 142.993 200.296C142.993 200.296 202.754 200.21 242.538 197.338C248.097 196.67 260.226 196.627 271.032 185.295C279.563 176.664 282.336 157.071 282.336 157.071C282.336 157.071 285.18 134.051 285.18 111.045V89.4751C285.18 66.4551 282.336 43.4492 282.336 43.4492Z" fill="#909090"/>
</svg>
